<?xml version="1.0" encoding="UTF-8" standalone="no"?>
<!-- Created with Inkscape (http://www.inkscape.org/) -->

<svg
   width="28.708889mm"
   height="20.964882mm"
   viewBox="0 0 28.708889 20.964882"
   version="1.1"
   id="svg5"
   xmlns="http://www.w3.org/2000/svg">
  <defs
     id="defs2" />
  <g
     id="layer1"
     transform="translate(-87.805646,-133.52528)">
    <g
       aria-label="JohnGachihi"
       id="text1772"
       style="font-size:10.5833px;line-height:1.25;font-family:Caveat;-inkscape-font-specification:Caveat;letter-spacing:0px;word-spacing:0px;stroke-width:0.264583">
      <path
         d="m 89.15678,142.69571 q -0.179916,0.0847 -0.412748,0.0635 -0.22225,-0.0106 -0.444499,-0.127 -0.222249,-0.10583 -0.391582,-0.28575 -0.07408,-0.0847 -0.09525,-0.16933 -0.02117,-0.0741 0.02117,-0.21166 0.05292,-0.1905 0.137583,-0.1905 0.116416,0 0.264582,0.20108 0.296333,0.26458 0.582082,0.14817 0.296332,-0.11642 0.624414,-0.62442 0.0635,-0.15875 0.201083,-0.45508 0.137583,-0.29633 0.285749,-0.635 0.15875,-0.33866 0.285749,-0.62441 0.127,-0.29634 0.169333,-0.42334 0,0 0,-0.0318 0.01058,-0.0423 0.05292,-0.0847 0.01058,-0.0423 0.05292,-0.16934 0.04233,-0.12699 0.08467,-0.29633 0.04233,-0.11641 0.116417,-0.34925 0.08467,-0.23283 0.169333,-0.48683 0.09525,-0.254 0.158749,-0.42333 0.05292,-0.22225 0.127,-0.47625 0.08467,-0.26458 0.137583,-0.40216 0.04233,-0.0847 0.126999,-0.33867 0.08467,-0.26458 0.1905,-0.5715 0.126999,-0.41275 0.243415,-0.762 0.116417,-0.35983 0.179917,-0.58208 0.07408,-0.23283 0.05292,-0.26458 0,0 -0.190499,0.0317 -0.179916,0.0317 -0.402166,0.0741 -0.179916,0.0741 -0.359832,0.0529 -0.169333,-0.0318 -0.158749,-0.0741 0,-0.0423 0,-0.0423 0,-0.0106 0,-0.0106 -0.03175,0.0212 -0.08467,-0.0106 -0.05292,-0.0423 -0.09525,-0.10584 -0.04233,-0.0741 -0.04233,-0.127 0,-0.0847 0.211666,-0.14816 0.211666,-0.0741 0.539749,-0.11642 0.211666,-0.0317 0.412748,-0.0529 0.211666,-0.0317 0.349249,-0.0529 0.04233,-0.0317 0.148166,0 0.116417,0.0318 0.232833,0.0847 0.126999,0.0529 0.179916,0.11641 0.0635,0.0847 0.07408,0.17992 0.02117,0.0953 -0.02117,0.26458 -0.04233,0.16933 -0.158749,0.48683 -0.105833,0.30692 -0.306916,0.84667 -0.232832,0.65616 -0.412748,1.19591 -0.179916,0.52916 -0.328083,0.87841 -0.03175,0.11642 -0.116416,0.33867 -0.07408,0.22225 -0.148166,0.45508 -0.07408,0.22225 -0.116416,0.37042 -0.08467,0.20108 -0.15875,0.43391 -0.07408,0.23283 -0.116416,0.37042 0,0.0847 -0.04233,0.1905 -0.04233,0.10583 -0.09525,0.15875 0,0 -0.07408,0.19049 -0.07408,0.17992 -0.179916,0.43392 -0.08467,0.21167 -0.1905,0.46567 -0.09525,0.26458 -0.179916,0.40216 -0.05292,0.127 -0.126999,0.23283 -0.07408,0.11642 -0.07408,0.15875 0,0 -0.01058,0.0317 0,0.0318 -0.04233,0.0318 0,0 -0.03175,0.0212 -0.03175,0.0318 -0.03175,0.0847 -0.02117,0.0635 -0.116416,0.16933 -0.08467,0.10583 -0.211666,0.22225 -0.116416,0.11641 -0.243416,0.20108 -0.116416,0.0952 -0.201083,0.13758 z"
         id="path9012" />
      <path
         d="m 93.136096,140.62139 q -0.137583,0 -0.222249,-0.0529 -0.07408,-0.0529 -0.1905,-0.14817 -0.201083,-0.21166 -0.285749,-0.40216 -0.08467,-0.20108 -0.05292,-0.381 0.03175,-0.0847 0.02117,-0.15875 0,-0.0847 0,-0.0847 -0.05292,-0.0529 -0.03175,-0.0635 0.02117,-0.0212 0.04233,-0.0635 0.0635,0 0.04233,-0.11641 -0.02117,-0.0847 0.08467,-0.37042 0.105833,-0.28575 0.264583,-0.53975 0.0635,-0.10583 0.190499,-0.27516 0.127,-0.17992 0.275166,-0.34925 0.158749,-0.17992 0.285749,-0.28575 0.264582,-0.22225 0.465665,-0.32808 0.201083,-0.10583 0.433915,-0.15875 0.232833,-0.0529 0.317499,-0.0529 0.09525,0 0.253999,0.16933 0.243416,0.10584 0.349249,0.254 0.116417,0.14817 0.148167,0.43392 0.03175,0.3175 -0.05292,0.73025 -0.07408,0.40216 -0.497415,1.00541 -0.264583,0.381 -0.486832,0.5715 -0.222249,0.17991 -0.529165,0.35983 -0.222249,0.14817 -0.402165,0.22225 -0.179916,0.0635 -0.423332,0.0847 z m 1.015997,-1.12183 q 0.253999,-0.28575 0.402165,-0.53975 0.158749,-0.254 0.296332,-0.64558 0.04233,-0.11642 0.05292,-0.28575 0.01058,-0.17992 -0.01058,-0.32808 -0.01058,-0.15875 -0.07408,-0.17992 -0.126999,-0.0741 -0.306915,-0.0423 -0.179916,0.0212 -0.391582,0.20108 -0.328083,0.27517 -0.571498,0.68791 -0.243416,0.40217 -0.476249,0.92075 -0.158749,0.381 -0.07408,0.61383 0.09525,0.22225 0.391582,0.15875 0.306916,-0.0741 0.761998,-0.56091 z"
         id="path9014" />
      <path
         d="m 96.522738,140.20864 q -0.07408,0.0106 -0.158749,0 -0.07408,-0.0212 -0.148167,-0.0741 -0.08467,-0.0847 -0.116416,-0.12699 -0.03175,-0.0529 -0.02117,-0.15875 0.02117,-0.10584 0.07408,-0.32809 0.05292,-0.16933 0.126999,-0.46566 0.07408,-0.30692 0.15875,-0.60325 0.03175,-0.16933 0.08467,-0.34925 0.0635,-0.17991 0.127,-0.32808 0.0635,-0.15875 0.09525,-0.24342 0.08467,-0.29633 0.15875,-0.51858 0.08467,-0.22225 0.201083,-0.508 0.116416,-0.29633 0.285749,-0.78316 0.232832,-0.635 0.349249,-0.96308 0.126999,-0.33867 0.179916,-0.48683 0.0635,-0.15875 0.08467,-0.24342 0,-0.0847 0.04233,-0.127 0.05292,-0.0423 0.127,-0.0423 0.148166,0 0.232832,0.14816 0.09525,0.13759 0.116417,0.33867 0.02117,0.1905 -0.0635,0.35983 -0.169333,0.381 -0.359832,0.91017 -0.1905,0.51858 -0.370416,1.02658 -0.179916,0.49741 -0.338665,0.84666 0,0.0423 -0.03175,0.14817 -0.03175,0.10583 -0.07408,0.1905 -0.04233,0.0847 -0.08467,0.15875 -0.03175,0.0741 -0.03175,0.0741 0,0.0423 -0.03175,0.15875 -0.03175,0.11641 -0.08467,0.28575 -0.04233,0.127 -0.105833,0.32808 -0.05292,0.20108 -0.07408,0.33866 0.05292,-0.0952 0.222249,-0.28574 0.169333,-0.1905 0.317499,-0.32809 0.169333,-0.14816 0.380999,-0.32808 0.211666,-0.17992 0.338666,-0.26458 0.126999,-0.0847 0.222249,-0.14817 0.105833,-0.0741 0.105833,-0.0741 0,-0.0423 0.03175,-0.0423 0.04233,-0.0106 0.08467,-0.0106 0.04233,0 0.04233,-0.0106 0.01058,-0.0106 0.01058,-0.0529 0,-0.0529 0.116416,-0.0952 0.127,-0.0423 0.285749,-0.0635 0.169333,-0.0317 0.275166,-0.0317 0.126999,0 0.201083,0.0529 0.07408,0.0529 0.190499,0.23283 0.127,0.16934 0.158749,0.41275 0.04233,0.23283 -0.04233,0.48683 0,0.0847 -0.03175,0.24342 -0.02117,0.14817 -0.02117,0.3175 l -0.0635,0.33866 h 0.169333 q 0.08467,0 0.158745,0.0317 0.0741,0.0212 0.0741,0.0212 0.0423,0.0423 0.0847,0.0847 0.0423,0.0317 0.0847,0.0317 0.127,0 0.0953,0.10583 -0.0318,0.0952 -0.15875,0.17992 -0.253999,0.16933 -0.465665,0.16933 -0.201083,0 -0.370415,-0.16933 -0.169333,-0.17992 -0.211666,-0.40217 -0.04233,-0.22225 0.04233,-0.56091 0.04233,-0.46567 0.04233,-0.67734 0.01058,-0.22225 -0.105833,-0.22225 -0.105833,0 -0.370415,0.14817 -0.264583,0.13758 -0.592665,0.381 -0.328082,0.24342 -0.645581,0.53975 -0.317499,0.29633 -0.529165,0.61383 -0.127,0.15875 -0.243416,0.28575 -0.116417,0.11641 -0.232833,0.127 z"
         id="path9016" />
      <path
         d="m 104.3332,140.65314 q -0.10583,0 -0.22225,-0.11642 -0.10583,-0.11642 -0.1905,-0.28575 -0.0741,-0.17991 -0.0741,-0.33866 0,-0.15875 0.0741,-0.59267 0.0847,-0.43391 0.20108,-0.87841 0.0847,-0.27517 0.0529,-0.3175 -0.0317,-0.0423 -0.28575,0.11641 -0.14816,0.0741 -0.26458,0.15875 -0.11642,0.0741 -0.20108,0.16934 -0.0529,0.0423 -0.15875,0.13758 -0.10584,0.0952 -0.22225,0.17992 -0.13758,0.10583 -0.34925,0.29633 -0.21167,0.1905 -0.42333,0.381 -0.20109,0.1905 -0.30692,0.29633 -0.0212,0.0423 -0.0635,0.0741 -0.0423,0.0317 -0.0952,0.0423 -0.0529,0 -0.11641,-0.0212 -0.11642,-0.0318 -0.22225,-0.13758 -0.0953,-0.10584 -0.0953,-0.24342 0,-0.10583 0.0847,-0.35983 0.0847,-0.26458 0.22225,-0.635 0.14817,-0.37042 0.33867,-0.78316 0.0318,-0.0529 0.0529,-0.127 0.0212,-0.0847 0.0318,-0.17992 0.0212,-0.0952 0.0212,-0.17992 0,-0.0529 0.0106,-0.10583 0.0212,-0.0635 0.0423,-0.11642 0.0318,-0.0635 0.0529,-0.0847 0.0423,-0.0847 0.14817,-0.0423 0.10583,0.0317 0.17992,0.14817 0.15875,0.14817 0.15875,0.37042 0.0106,0.22225 -0.10584,0.55033 -0.0423,0.0741 -0.0741,0.14816 -0.0212,0.0635 -0.0423,0.11642 -0.0212,0.0423 -0.0318,0.0741 -0.0106,0.0212 -0.0106,0.0212 0.0423,0 0.1905,-0.0952 0.14817,-0.0952 0.34925,-0.21167 0.15875,-0.11641 0.27517,-0.21166 0.127,-0.10583 0.21166,-0.15875 0.0847,-0.0635 0.10584,-0.0635 0.0423,0 0.10583,-0.0317 0.0635,-0.0318 0.10583,-0.0741 0.0423,-0.0423 0.0635,-0.0423 0.0318,-0.0106 0.0318,-0.0106 0,0 0.0423,0 0.0423,-0.0106 0.0847,-0.0529 0.0847,-0.0635 0.22225,-0.0318 0.13758,0.0212 0.254,0.10584 0.11642,0.0847 0.11642,0.1905 0,0.0423 0.0212,0.0741 0.0318,0.0212 0.0318,0.0212 0.0847,0 0.10584,0.26458 0.0317,0.26458 -0.0529,0.508 0,0.15875 -0.0635,0.381 -0.0529,0.22224 -0.0953,0.42333 -0.0847,0.26458 -0.11642,0.46566 -0.0318,0.20109 -0.0106,0.33867 0.0212,0.13758 0.0741,0.22225 0.0423,0.0741 0,0.16933 -0.0423,0.0847 -0.16933,0.0847 z"
         id="path9018" />
      <path
         d="m 90.024611,154.33734 q -0.285749,-0.17991 -0.444499,-0.50799 -0.158749,-0.33867 -0.148166,-0.67734 -0.01058,-0.65616 0.105833,-1.32291 0.127,-0.67733 0.328082,-1.31233 0.137583,-0.381 0.296333,-0.78316 0.169333,-0.41275 0.338665,-0.77258 0.169333,-0.35983 0.296333,-0.5715 0.328082,-0.53975 0.687914,-0.889 0.370416,-0.35983 0.550332,-0.46566 0.148166,-0.0847 0.507998,-0.16934 0.370416,-0.0847 0.761998,0.0106 0.275166,0.0741 0.507998,0.17991 0.243416,0.10584 0.317499,0.17992 0.08467,0.127 0.148166,0.22225 0.07408,0.0847 0.07408,0.21167 0.01058,0.0847 -0.0635,0.21166 -0.0635,0.11642 -0.169333,0.16933 -0.09525,0.0529 -0.1905,-0.0529 -0.137582,-0.21167 -0.285749,-0.28575 -0.148166,-0.0847 -0.317499,-0.16933 -0.116416,-0.0741 -0.317499,-0.0741 -0.201082,-0.0106 -0.412748,0.0423 -0.211666,0.0529 -0.370416,0.17991 -0.105833,0.0952 -0.275166,0.28575 -0.169332,0.17992 -0.338665,0.40217 -0.169333,0.22225 -0.275166,0.43391 -0.285749,0.49742 -0.518582,1.00542 -0.222249,0.49741 -0.380998,1.09008 -0.04233,0.14816 -0.116417,0.43391 -0.0635,0.28575 -0.126999,0.5715 -0.0635,0.28575 -0.08467,0.46566 -0.07408,0.51859 -0.05292,0.91017 0.03175,0.39158 0.275166,0.53975 0.243415,0.14816 0.80433,-0.0423 0.243416,-0.0318 0.518582,-0.21166 0.285749,-0.17992 0.550332,-0.4445 0.275165,-0.27517 0.465665,-0.58208 0.179916,-0.33867 0.317499,-0.66675 0.148166,-0.32808 0.158749,-0.53975 0.01058,-0.21167 -0.201082,-0.20108 -0.391583,-0.0423 -0.634998,-0.0212 -0.243416,0.0106 -0.433916,-0.0741 -0.07408,-0.11642 -0.0635,-0.23283 0.01058,-0.11642 0.126999,-0.23284 0.116416,-0.0423 0.391582,-0.0635 0.275166,-0.0212 0.592665,0.0212 0.317499,0.0318 0.560915,0.14817 0.179916,0.0847 0.253999,0.254 0.07408,0.15874 0.07408,0.37041 0,0.21167 -0.04233,0.43392 -0.05292,0.23283 -0.232833,0.56091 -0.169332,0.3175 -0.412748,0.67733 -0.15875,0.22225 -0.444499,0.48683 -0.275166,0.26459 -0.571498,0.47625 -0.285749,0.21167 -0.486832,0.28575 -0.423332,0.1905 -0.86783,0.24342 -0.444499,0.0635 -0.730248,-0.13759 z"
         id="path9020" />
      <path
         d="m 94.501341,153.62826 q -0.04233,-0.0847 -0.105833,-0.127 -0.0635,-0.0529 -0.0635,-0.0952 0,-0.0423 -0.01058,-0.0847 0,-0.0529 -0.04233,-0.0952 -0.05292,-0.0635 0.01058,-0.28575 0.0635,-0.23283 0.211665,-0.56092 0.148167,-0.33866 0.349249,-0.70908 0.08467,-0.0847 0.169333,-0.22225 0.08467,-0.13758 0.127,-0.17991 0,-0.0423 0.03175,-0.0741 0.03175,-0.0423 0.07408,-0.0423 v -0.0635 q 0,-0.0529 0.09525,-0.17991 0.105833,-0.127 0.254,-0.27517 0.148166,-0.15875 0.306915,-0.29633 0.15875,-0.14817 0.264583,-0.21167 0.222249,-0.14817 0.455082,-0.17991 0.243416,-0.0317 0.412748,0.10583 0.03175,0.0318 0.105833,0.10583 0.07408,0.0741 0.169333,0.16933 0.105833,0.0847 0.211666,0.17992 l 0.391582,0.34925 -0.190499,0.52916 q -0.137583,0.42334 -0.07408,0.74083 0.07408,0.3175 0.211666,0.55034 0.05292,0.11641 0.211666,0.22225 0.169333,0.10583 0.317499,0.127 0.08467,0.0106 0.158749,0.0635 0.07408,0.0529 0.07408,0.16933 0,0.10583 -0.04233,0.16933 -0.04233,0.0635 -0.148166,0.0847 -0.349249,0.0423 -0.656165,-0.16934 -0.296332,-0.21166 -0.550331,-0.69849 -0.04233,-0.0635 -0.116416,-0.23284 -0.0635,-0.17991 -0.07408,-0.23283 -0.04233,0.0529 -0.158749,0.20108 -0.116416,0.13759 -0.179916,0.20109 -0.751414,0.76199 -1.301746,1.02658 -0.539748,0.254 -0.899581,0.0212 z m 0.380999,-0.59266 q 0,0.0741 0.22225,0 0.232832,-0.0847 0.497415,-0.29633 0.359832,-0.30692 0.719664,-0.67734 0.370416,-0.37041 0.592665,-0.68791 l 0.232832,-0.381 q -0.105833,-0.24341 -0.232832,-0.32808 -0.116416,-0.0952 -0.201083,-0.0952 -0.137583,0 -0.412749,0.254 -0.264582,0.254 -0.571498,0.67733 -0.306915,0.42333 -0.582081,0.93133 -0.105833,0.21167 -0.1905,0.41275 -0.07408,0.1905 -0.07408,0.1905 z"
         id="path9022" />
      <path
         d="m 100.20572,153.89285 q -0.306914,0.0529 -0.560913,-0.0318 -0.253999,-0.0952 -0.412748,-0.30692 -0.148167,-0.22225 -0.148167,-0.56091 -0.03175,-0.3175 0.07408,-0.73025 0.105833,-0.42333 0.306915,-0.84667 0.211666,-0.42333 0.455082,-0.73024 0.211671,-0.254 0.423341,-0.46567 0.21166,-0.21167 0.38099,-0.28575 0.14817,-0.0635 0.27517,-0.0741 0.13758,-0.0212 0.22225,-0.0212 0.16933,0.0423 0.35983,0.15875 0.20108,0.10583 0.20108,0.23283 0,0 0.0212,0.0317 0.0318,0.0212 0.0318,0.0212 0.0635,0 0.10583,0.13758 0.0529,0.13759 0.0635,0.3175 0.0106,0.16934 -0.0529,0.28575 -0.0423,0.20108 -0.14817,0.34925 -0.10583,0.14817 -0.1905,0.14817 -0.0423,0 -0.0847,0.0106 -0.0318,0 -0.0318,0.0529 0,0.0529 -0.0635,0.0423 -0.0529,-0.0106 -0.11641,-0.0635 -0.0635,-0.0635 -0.0952,-0.14817 0,-0.0529 0.0423,-0.17991 0.0423,-0.127 0.0847,-0.32808 0.0635,-0.29634 -0.0106,-0.381 -0.0741,-0.0952 -0.28575,-0.0106 -0.26459,0.14817 -0.508,0.41275 -0.23283,0.26458 -0.43392,0.68792 -0.201084,0.41275 -0.359834,1.03716 -0.0635,0.24342 -0.05292,0.42333 0.02117,0.17992 0.05292,0.1905 0.148166,0.0423 0.402174,0.0212 0.25399,-0.0318 0.37041,-0.0953 0.16933,-0.0847 0.381,-0.22225 0.21167,-0.14817 0.37042,-0.26458 0.0529,-0.0317 0.127,-0.10584 0.0741,-0.0741 0.15874,-0.11641 0.0847,-0.127 0.14817,-0.14817 0.0635,-0.0212 0.1905,-0.0212 0.0847,0.0212 0.15875,0.0635 0.0741,0.0423 0.0952,0.0847 0.0318,0.0423 -0.0317,0.0741 -0.0423,0 -0.0529,0.0317 0,0.0212 0,0.0212 0.0212,0.0423 -0.0953,0.17992 -0.10583,0.127 -0.27516,0.28575 -0.16934,0.15874 -0.32808,0.27516 -0.14817,0.10583 -0.21167,0.10583 -0.10583,0 -0.10583,0.0635 0,0.0212 -0.15875,0.10584 -0.14817,0.0847 -0.34925,0.16933 -0.1905,0.0847 -0.33867,0.11642 z"
         id="path9024" />
      <path
         d="m 106.14295,153.68118 q -0.26458,0.127 -0.47625,0.0741 -0.21167,-0.0635 -0.33867,-0.28575 -0.11641,-0.22225 -0.11641,-0.56091 0,-0.11642 0.0318,-0.34925 0.0423,-0.23283 0.0953,-0.48683 0.0529,-0.26458 0.11641,-0.45508 0.0318,-0.0952 0.0423,-0.14817 0.0212,-0.0529 -0.0212,-0.0529 -0.0423,0 -0.10583,0.0529 -0.0529,0.0529 -0.0847,0.0847 -0.23283,0.1905 -0.48683,0.46566 -0.24342,0.27517 -0.45508,0.56092 -0.21167,0.27516 -0.34925,0.508 -0.127,0.23283 -0.127,0.33866 0,0.15875 -0.15875,0.22225 -0.15875,0.0635 -0.27517,-0.0106 -0.20108,-0.11642 -0.254,-0.27517 -0.0423,-0.16933 -0.0106,-0.56091 0.0318,-0.49742 0.0847,-0.889 0.0529,-0.39158 0.16933,-0.84667 0.127,-0.46566 0.32808,-1.13241 0.13759,-0.37041 0.254,-0.6985 0.11642,-0.33866 0.20108,-0.57149 0.0953,-0.23284 0.11642,-0.28575 0.0529,-0.0529 0.13758,-0.254 0.0847,-0.21167 0.14817,-0.42333 0.0741,-0.21167 0.0741,-0.254 0,-0.0847 0.0318,-0.14817 0.0317,-0.0741 0.0741,-0.11642 0.0423,-0.0423 0.0741,-0.0741 0.0318,-0.0317 0.0318,-0.0317 0.0529,0 0.127,0.0317 0.0847,0.0318 0.15875,0.0952 0.0741,0.0529 0.0953,0.13758 0.0741,0.14817 0.0741,0.30692 0,0.14817 -0.0952,0.37041 -0.0847,0.22225 -0.29633,0.61384 -0.16933,0.32808 -0.30692,0.67733 -0.13758,0.34925 -0.26458,0.73024 -0.0529,0.15875 -0.14817,0.4445 -0.0847,0.28575 -0.17991,0.59267 -0.0847,0.30691 -0.14817,0.55033 -0.0529,0.23283 -0.0529,0.29633 0,0.0741 0.0847,0.0741 0.0847,-0.0106 0.16934,-0.127 0.0423,-0.0847 0.17991,-0.21167 0.13758,-0.127 0.22225,-0.20108 0.0847,-0.0741 0.23283,-0.21167 0.14817,-0.13758 0.3175,-0.27516 0.16933,-0.14817 0.3175,-0.24342 0.14817,-0.10583 0.23283,-0.10583 0.13759,0 0.254,0.10583 0.11642,0.0952 0.15875,0.21167 0.0318,0.0317 0.0635,0.0847 0.0318,0.0423 0.0423,0.0635 0.0529,0.0423 0,0.37042 -0.0423,0.3175 -0.21167,0.82549 -0.0952,0.39159 -0.15875,0.66675 -0.0529,0.26458 0.0318,0.26458 0,0 0.10583,-0.0635 0.11642,-0.0635 0.24342,-0.13758 0.30691,-0.20108 0.52916,-0.23283 0.23284,-0.0423 0.23284,0.0741 0,0.0423 -0.0318,0.0847 -0.0318,0.0318 -0.0318,0.0741 0,0 0,0.0106 0,0 0,0.0423 0,0.0212 -0.13759,0.16933 -0.13758,0.13758 -0.30691,0.28575 -0.15875,0.13758 -0.254,0.15875 z"
         id="path9026" />
      <path
         d="m 108.14318,153.68118 q -0.15875,-0.0212 -0.27517,-0.22225 -0.10583,-0.21167 -0.127,-0.381 0.0106,-0.0847 0.0212,-0.24341 0.0212,-0.15875 0.0423,-0.32809 0.0423,-0.20108 0.11642,-0.48683 0.0741,-0.29633 0.14816,-0.59266 0.0847,-0.29634 0.14817,-0.508 0.0635,-0.21167 0.0847,-0.254 0.0529,-0.0847 0.16933,-0.0423 0.11642,0.0423 0.1905,0.127 0.0635,0.0847 0.0741,0.20108 0.0212,0.11641 -0.0318,0.33866 -0.0423,0.22225 -0.16933,0.65617 -0.11642,0.42333 -0.17992,0.68791 -0.0529,0.254 -0.0423,0.53975 -0.0423,0.35983 -0.0635,0.4445 -0.0212,0.0741 -0.10583,0.0635 z m 1.21708,-4.22274 q -0.0423,0.0318 -0.0847,0.0318 -0.0317,-0.0106 -0.11642,-0.0635 -0.0741,-0.0106 -0.19049,-0.0953 -0.10584,-0.0952 -0.1905,-0.1905 -0.0741,-0.10583 -0.0741,-0.127 -0.0106,-0.10583 0.0106,-0.26458 0.0318,-0.16933 0.11641,-0.29633 0.0847,-0.13758 0.24342,-0.14817 0.0423,0 0.0741,0.0106 0.0318,0.0106 0.1905,0.0741 0.0847,0.15875 0.16933,0.35983 0.0847,0.1905 0.0741,0.381 -0.0106,0.17992 -0.22225,0.32808 z"
         id="path9028" />
      <path
         d="m 113.27606,153.77643 q -0.20108,0.0529 -0.29633,0.0423 -0.0953,-0.0212 -0.254,-0.17991 -0.0952,-0.14817 -0.16933,-0.26459 -0.0741,-0.11641 -0.0952,-0.41274 -0.0106,-0.20109 0.0212,-0.43392 0.0423,-0.24342 0.0318,-0.34925 0.0847,-0.39158 0.0635,-0.62441 -0.0106,-0.24342 -0.0635,-0.24342 -0.11641,-0.0212 -0.42333,0.23283 -0.29633,0.24342 -0.68791,0.64558 -0.381,0.39159 -0.762,0.8255 -0.20108,0.27517 -0.28575,0.41275 -0.0847,0.127 -0.127,0.127 -0.0741,0 -0.20108,-0.0529 -0.127,-0.0529 -0.22225,-0.127 -0.0952,-0.0847 -0.10583,-0.14816 0,-0.0423 0.0529,-0.22225 0.0529,-0.1905 0.127,-0.43392 0.0847,-0.24341 0.14817,-0.45508 0.0635,-0.21166 0.0953,-0.29633 0.0952,-0.27517 0.22225,-0.66675 0.13758,-0.40216 0.24341,-0.70908 0.0423,-0.13758 0.14817,-0.39158 0.10583,-0.26458 0.21166,-0.52917 0.10584,-0.26458 0.14817,-0.39158 0.0318,-0.0847 0.11642,-0.29633 0.0847,-0.22225 0.17991,-0.48683 0.10584,-0.26459 0.1905,-0.48684 0.0953,-0.23283 0.127,-0.33866 -0.0106,-0.0953 0.0106,-0.16933 0.0318,-0.0847 0.0635,-0.127 0.0423,0 0.0952,0 0.0529,-0.0106 0.0529,-0.0106 0,-0.0212 0.0847,0.0423 0.0847,0.0635 0.15875,0.15875 0.0847,0.0847 0.0847,0.14816 0.0529,0.13759 0.0106,0.35983 -0.0423,0.21167 -0.22225,0.64559 -0.11642,0.16933 -0.23283,0.50799 -0.10584,0.33867 -0.21167,0.5715 -0.0423,0.0741 -0.15875,0.3175 -0.10583,0.24342 -0.254,0.5715 -0.13758,0.32808 -0.26458,0.66675 -0.127,0.32808 -0.20108,0.59266 -0.10584,0.254 -0.0741,0.33867 0.0318,0.0847 0.254,-0.1905 0.29633,-0.3175 0.62442,-0.64558 0.32808,-0.32808 0.61383,-0.55033 0.29633,-0.23284 0.47625,-0.21167 0.0952,0.0212 0.20108,0.127 0.11642,0.10583 0.22225,0.24342 0.10583,0.13758 0.14816,0.26458 0.0423,0.15875 0.0529,0.27516 0.0212,0.11642 0.0106,0.34925 -0.0106,0.22225 -0.0529,0.70908 -0.0635,0.35984 -0.0847,0.51859 -0.0212,0.14816 0.0106,0.21166 0.0423,0.0635 0.127,0.13758 0.15875,0.127 0.15875,0.22225 0.0106,0.0952 -0.13758,0.17992 z"
         id="path9030" />
      <path
         d="m 114.59896,153.49068 q -0.0423,0 -0.10584,-0.0212 -0.0529,-0.0318 -0.0529,-0.0318 0,-0.0423 -0.0317,-0.10583 -0.0212,-0.0635 -0.0212,-0.10583 -0.0741,-0.0423 -0.0847,-0.0847 -0.0106,-0.0529 0.0318,-0.16933 0.0635,-0.10583 0.16934,-0.33867 0.10583,-0.24341 0.22225,-0.51858 0.11641,-0.28575 0.22225,-0.56091 0.10583,-0.27517 0.17991,-0.46567 0.0741,-0.20108 0.0847,-0.24341 0,-0.0423 0.0318,-0.10584 0.0318,-0.0635 0.0741,-0.10583 0.0847,-0.0741 0.17992,-0.0106 0.0952,0.0529 0.15875,0.1905 0.0741,0.127 0.0741,0.28574 0,0.0741 -0.10583,0.381 -0.10584,0.29634 -0.28575,0.70908 -0.16933,0.41275 -0.381,0.83609 -0.15875,0.30691 -0.20108,0.39158 -0.0423,0.0741 -0.15875,0.0741 z m 1.55574,-4.01107 q -0.127,0 -0.27516,-0.0953 -0.13759,-0.10583 -0.24342,-0.254 -0.0953,-0.15875 -0.0953,-0.3175 0,-0.0529 0.0635,-0.14816 0.0635,-0.0953 0.127,-0.1905 0.0635,-0.0952 0.0635,-0.11642 0.0847,0 0.127,0.0106 0.0529,0 0.127,0.0423 0.11642,0.26458 0.28575,0.43391 0.17991,0.16933 0.17991,0.28575 0,0.23283 -0.0423,0.29633 -0.0423,0.0529 -0.3175,0.0529 z"
         id="path9032" />
    </g>
  </g>
</svg>
